<svg width="84" height="84" viewBox="0 0 84 84" fill="none" xmlns="http://www.w3.org/2000/svg">
<rect x="0.5" y="0.5" width="83" height="83" rx="41.5" stroke="#18B3AB"/>
<path d="M35.5425 51.7055L35.511 51.632C35.0378 51.5026 34.5686 51.3591 34.104 51.2015L34.069 51.1875C29.234 49.5333 25.0372 46.4085 22.0662 42.2508C19.0952 38.093 17.4986 33.1102 17.5 28C17.4985 21.7284 19.9021 15.695 24.2158 11.1425C28.5295 6.59 34.4248 3.86512 40.6874 3.52911C46.95 3.1931 53.103 5.27155 57.8791 9.33634C62.6552 13.4011 65.6905 19.1427 66.36 25.3785C66.514 26.8205 65.324 28 63.875 28C62.426 28 61.2675 26.817 61.075 25.382C60.6095 21.995 59.2505 18.793 57.1376 16.1051C55.0247 13.4172 52.2342 11.3404 49.0529 10.0882C45.8716 8.8359 42.4143 8.45334 39.0361 8.9798C35.658 9.50625 32.481 10.9227 29.8316 13.0837C27.1822 15.2446 25.156 18.072 23.9613 21.2754C22.7665 24.4787 22.4463 27.9424 23.0335 31.3105C23.6207 34.6786 25.0941 37.8296 27.3024 40.4396C29.5107 43.0497 32.3742 45.0246 35.5985 46.1615C36.2481 44.6934 37.3825 43.4931 38.8117 42.7619C40.241 42.0306 41.8781 41.8129 43.4488 42.1452C45.0194 42.4774 46.4282 43.3395 47.4388 44.5869C48.4495 45.8342 49.0007 47.3911 49 48.9965C49.0017 50.6144 48.4428 52.183 47.4184 53.4354C46.3941 54.6877 44.9676 55.5466 43.3814 55.8659C41.7953 56.1852 40.1476 55.9452 38.7184 55.1867C37.2893 54.4282 36.1671 53.1981 35.5425 51.7055ZM31.955 56.0105C27.8283 54.5284 24.0802 52.1524 20.979 49.0525C19.0615 49.2756 17.2927 50.1952 16.0087 51.6367C14.7247 53.0782 14.0148 54.9411 14.014 56.8715V60.0915C14.014 62.0935 14.637 64.0465 15.799 65.6775C21.196 73.2515 30.03 77 42 77C53.97 77 62.8075 73.248 68.215 65.6775C69.3824 64.0448 70.0102 62.0881 70.0105 60.081V56.868C70.0105 54.7806 69.1818 52.7787 67.7065 51.302C66.2311 49.8254 64.2299 48.9949 62.1425 48.993H54.25C54.2506 51.6 53.4194 54.1392 51.8774 56.2412C50.3355 58.3433 48.1631 59.8986 45.6763 60.6809C43.1894 61.4633 40.5179 61.4319 38.0501 60.5913C35.5824 59.7507 33.4472 58.1482 31.955 56.0105ZM56 28C56 25.954 55.5516 23.9329 54.6863 22.0789C53.821 20.2249 52.5598 18.5831 50.9915 17.269C49.5358 16.0513 47.8476 15.1422 46.0297 14.5971C44.2117 14.052 42.3019 13.8823 40.4162 14.0982C38.5306 14.3141 36.7086 14.9111 35.0609 15.853C33.4132 16.7949 31.9742 18.062 30.8314 19.5773C29.6885 21.0926 28.8658 22.8245 28.413 24.6676C27.9603 26.5107 27.887 28.4267 28.1977 30.299C28.5084 32.1714 29.1965 33.961 30.2203 35.5591C31.244 37.1572 32.5821 38.5305 34.153 39.5955C36.3549 37.7576 39.1319 36.7506 42 36.75C44.9855 36.75 47.7225 37.8175 49.8505 39.5955C51.7451 38.3124 53.2963 36.5845 54.3683 34.5631C55.4404 32.5416 56.0006 30.2882 56 28Z" fill="#18B3AB"/>
</svg>
